PathFileType	4	(X/Y/Z)	Patient4_TMGait_0pt4_03_left_35.trc.trc
DataRate	CameraRate	NumFrames	NumMarkers	Units	OrigDataRate	OrigDataStartFrame	OrigNumFrames
74.074074074074	74.074074074074	4	33	mm	74.074074074074	89	       141
Frame#	Time	Sacral			L.Shoulder			Chest			R.Shoulder			Neck			R.ASIS			L.ASIS			R.Thigh.Superior			R.Thigh.Lateral			R.Thigh.Inferior			R.Patella			L.Thigh.Superior			L.Thigh.Lateral			L.Thigh.Inferior			L.Patella			L.Shank.Superior			L.Shank.Lateral			L.Shank.Inferior			R.Shank.Superior			R.Shank.Lateral			R.Shank.Inferior			R.Heel			R.Midfoot.Superior			R.Midfoot.Lateral			R.Toe			L.Heel			L.Midfoot.Lateral			L.Midfoot.Superior			L.Toe			L.Elbow			L.Wrist			R.Elbow			R.Wrist			
		X1	Y1	Z1	X2	Y2	Z2	X3	Y3	Z3	X4	Y4	Z4	X5	Y5	Z5	X6	Y6	Z6	X7	Y7	Z7	X8	Y8	Z8	X9	Y9	Z9	X10	Y10	Z10	X11	Y11	Z11	X12	Y12	Z12	X13	Y13	Z13	X14	Y14	Z14	X15	Y15	Z15	X16	Y16	Z16	X17	Y17	Z17	X18	Y18	Z18	X19	Y19	Z19	X20	Y20	Z20	X21	Y21	Z21	X22	Y22	Z22	X23	Y23	Z23	X24	Y24	Z24	X25	Y25	Z25	X26	Y26	Z26	X27	Y27	Z27	X28	Y28	Z28	X29	Y29	Z29	X30	Y30	Z30	X31	Y31	Z31	X32	Y32	Z32	X33	Y33	Z33	

89	47.498000000000	877.518394683017	1003.757983672350	476.415784405306	1049.542734508475	1433.832352787710	289.687803335783	1150.986251087761	1372.280736715320	454.180524070384	1060.462729300768	1445.976892424315	625.282625911608	1034.669686331109	1497.567235496353	444.665860575459	1110.171728337539	944.257243762680	591.429905455232	1090.983177899798	967.607059596880	319.105138275859	1162.307339459307	746.732460800700	559.960341537693	1088.967985930268	634.266882828380	623.458457016721	1167.797184058650	585.552360141194	541.515938312435	1175.221004151787	496.939900266535	548.761017130453	1124.728735427750	745.245365118559	331.769499078263	1027.027249589620	636.037109571048	264.649707427946	1112.799642566813	548.091125334520	315.239465019146	1104.774362287339	466.649368163478	310.161945188034	1044.418566104115	408.093835797460	305.627629782421	909.597242229574	344.657391052807	263.734754437810	920.308308152909	213.789128503404	316.823627502178	1147.650359214840	407.592488103182	558.200459478306	1081.649267919911	304.379038506812	626.501168496483	1120.781699033098	208.365565025721	562.542238149308	988.885952101602	43.096279751813	545.193186025960	1161.607072837578	97.305342535897	568.727037926489	1077.086364365518	37.647688500061	614.184205308499	1284.201717835615	44.423985655433	588.623827097446	749.083843832685	109.460470153223	365.156952780042	810.233203468960	75.625231711464	282.853812608684	910.183756486181	110.173947504449	298.329249244459	1010.541130233008	34.529654887478	268.331665721828	1034.690657358065	1081.878540778723	169.957786352684	1198.060482846833	875.606886404674	145.814487883261	999.578333191680	1117.462032807666	771.241183714352	1138.361295768883	896.456906659998	773.352169726317	
90	47.511500000000	877.191443919481	1004.115722866605	480.853780277231	1048.391688533120	1434.125126233446	293.423255539780	1151.412449891773	1372.120512905544	456.807130987502	1062.791992141401	1445.722799302225	628.884232009924	1035.088773752485	1497.643210605199	448.660622588329	1110.826537312409	944.216212966969	593.974449234849	1089.334836369862	967.557914909169	321.910851744035	1161.051201802682	745.840346828241	562.812000129295	1086.472393875251	633.926416624132	625.850226790204	1164.859950557867	584.832856584759	543.766825110191	1171.328005497002	496.347167729208	550.361995481128	1129.252325461731	747.772060360035	334.343014894945	1036.554315366528	636.236302476250	265.951243938935	1125.218312797758	550.278822467504	316.453152420823	1118.426426270315	467.550483529642	310.553770514839	1056.000134090834	408.981595553585	306.064919329555	919.173916425113	350.306270940364	263.740117180329	925.189220264209	219.241584248230	316.511681411179	1143.671567775957	407.085160157375	559.572341776376	1077.545887474815	303.855199302087	627.691874839687	1115.966261600499	207.961218343321	563.071092867203	983.329904073482	43.042683393784	545.314649763539	1156.135035730519	97.112869438738	568.908808861870	1071.553122866726	37.562559127323	614.339960941534	1278.743528638363	44.007474900909	588.726822232736	749.951500459080	123.672668465895	364.313562005240	809.246767419522	85.931383367067	282.305746050186	910.919139202557	114.730240802272	297.680521554388	1005.886646648356	33.572165104453	268.461566297334	1029.360617524784	1082.313678772068	173.999676230732	1186.894442749256	871.757504467664	147.601056132924	1006.425741810893	1117.582497378032	777.370085808316	1153.374194196787	902.189801032946	776.293606961874	
91	47.525000000000	876.665356408178	1004.323229320174	485.172736332249	1047.019775273807	1434.277681896014	297.040980807089	1151.731951810950	1371.749032103321	459.216414285699	1065.185712635829	1445.276020003383	632.327464379542	1035.478680469364	1497.589034757483	452.551906602937	1111.260013119945	944.092923134993	596.294629737541	1087.556736821569	967.386161603342	324.414070161176	1159.593728725219	744.978670478734	565.301404170251	1084.119350558011	633.612332440662	628.194407728425	1161.856893401486	584.146543174455	545.802845993770	1167.429506227696	495.755177856623	551.965098208612	1133.748161390749	750.621486273512	336.805880171757	1046.330338383734	636.792715717279	267.143162360301	1137.790377460850	553.063542674852	317.649256690590	1132.448497607099	469.149055017117	311.094798556092	1068.185709056149	410.345238967804	306.577288765831	929.601780227600	356.300542881746	263.681330445897	930.954516025733	225.240896907928	316.350017956236	1139.675176356795	406.570069935588	560.964897774168	1073.400457400708	303.325377793747	628.896144685565	1111.128984707103	207.556406661787	563.632795855405	977.753129637184	42.984435514529	545.451858651770	1150.647257795468	96.921644624916	569.097620218714	1066.006916023456	37.474937746515	614.505431364502	1273.262807165295	43.620325773088	588.816420826213	751.993053512409	138.638022889958	363.504244132143	809.374963172920	97.209155545407	281.770275002163	912.575995059714	120.068930811476	297.267689693944	1001.968632368571	32.760640507073	268.662409310933	1023.870346968342	1082.641034480452	177.933725418286	1175.272954965991	867.878660608331	149.254366168018	1013.548424798302	1117.654372459680	783.493929944168	1168.218595600905	908.061895551925	778.958886214453	
92	47.538500000000	875.977611503595	1004.413007585522	489.330414826793	1045.463304713154	1434.335397773451	300.505837813163	1151.932922088909	1371.225543817789	461.401697510241	1067.580318072340	1444.690369161418	635.583485622007	1035.831049219930	1497.450149195840	456.292191899300	1111.474230352604	943.927898695929	598.400062542570	1085.685471525732	967.127962361580	326.637140523543	1157.989755173819	744.196137395251	567.441823399440	1081.932492792187	633.342140306916	630.477023485025	1158.846382678377	583.513574134199	547.641518469266	1163.583398913126	495.177736790254	553.573767890210	1138.077013025061	753.806654427171	339.168971271038	1056.064060820904	637.793431793734	268.242657499780	1150.181999719877	556.491177498309	318.805334743725	1146.508628908192	471.501431256769	311.714668045811	1080.676982151930	412.247543699720	307.120347864471	940.585637654944	362.543473681319	263.605696220329	937.519222667092	231.642032345460	316.340879850572	1135.704460743142	406.064790714884	562.374223987865	1069.236313162588	302.817001020040	630.105644670038	1106.301899505783	207.173106774281	564.234399750278	972.185860504575	42.933712347968	545.608718668922	1145.171467254771	96.748152094196	569.303117202951	1060.474720792636	37.393864213998	614.682554195408	1267.783777897464	43.278564466143	588.906581625479	755.249965626374	153.761422820290	362.779549089182	810.770224030247	109.005239368249	281.287426998404	915.257255724693	126.048990125994	297.094482182131	999.158888804094	32.252434476239	268.927802997699	1018.202296376211	1082.888514792289	181.776964558492	1163.196955426367	864.040592634830	150.795106669862	1020.994405344314	1117.682693849690	789.513420002060	1182.876923444322	914.011905781325	781.305658900968	
